#!OML:ASF H:\Pregnant\Project 1\Capture day 1\Session 1\femalepreg.ASF
:FULLY-SPECIFIED
:DEGREES
893
root 22.6056 15.6069 -2.50566 -164.084 176.947 -183.897
lowerback -13.4362 0.7901 11.1085
upperback -5.31392 -0.415724 2.32386
thorax 1.80161 -0.305599 -3.85831
lowerneck -11.7792 -11.4147 -7.15275
upperneck 18.9086 -14.4104 0.223064
head 8.34973 -7.31583 -0.376826
rclavicle 1.1778e-014 -9.54166e-015
rhumerus -32.1312 9.16626 -83.7412
rradius 25.926
rwrist -4.18764
rhand -12.5206 -12.9511
rfingers 7.12502
rthumb 13.5553 -42.4899
lclavicle 1.1778e-014 -9.54166e-015
lhumerus -46.2516 -2.49297 80.4639
lradius 23.2778
lwrist 40.4349
lhand -16.749 -2.37363
lfingers 7.12502
lthumb 9.47752 27.3933
rfemur -36.0035 12.7122 27.0976
rtibia 33.8252
rfoot -11.0376 -5.48277
rtoes -4.4868
lfemur -36.1843 -1.21352 -19.3204
ltibia 71.4249
lfoot 7.16561 -11.706
ltoes -21.2562
894
root 22.6066 15.5964 -2.42062 -164.18 177.214 -183.841
lowerback -13.2178 0.842819 11.1299
upperback -5.19052 -0.330323 2.36441
thorax 1.82801 -0.257694 -3.81435
lowerneck -11.7296 -11.4445 -7.15413
upperneck 18.6275 -14.4654 0.31953
head 8.25557 -7.33337 -0.339215
rclavicle -2.75814e-015 -7.15625e-015
rhumerus -31.6785 9.33424 -83.6501
rradius 25.9474
rwrist -4.30799
rhand -13.0731 -13.0012
rfingers 7.12502
rthumb 13.0227 -42.5747
lclavicle -2.75814e-015 -7.15625e-015
lhumerus -46.0531 -2.24132 80.3786
lradius 23.3372
lwrist 39.867
lhand -16.6929 -2.12377
lfingers 7.12502
lthumb 9.53169 27.6406
rfemur -35.7025 12.6799 27.1722
rtibia 34.1476
rfoot -11.5042 -5.35404
rtoes -4.43194
lfemur -37.4419 -0.977335 -19.4106
ltibia 72.2973
lfoot 6.70844 -11.2504
ltoes -21.2938
895
root 22.6078 15.5874 -2.33434 -164.293 177.47 -183.762
lowerback -12.9976 0.887137 11.1375
upperback -5.06988 -0.252989 2.384
thorax 1.84913 -0.214202 -3.78633
lowerneck -11.6568 -11.4672 -7.16191
upperneck 18.3739 -14.5159 0.435641
head 8.16884 -7.34781 -0.293638
rclavicle 9.8678e-015 -1.03368e-014
rhumerus -31.2208 9.41703 -83.5644
rradius 25.9249
rwrist -4.37792
rhand -13.711 -13.1069
rfingers 7.12502
rthumb 12.4078 -42.7187
lclavicle 9.8678e-015 -1.03368e-014
lhumerus -45.8719 -1.98224 80.27
lradius 23.4409
lwrist 39.3056
lhand -16.8123 -1.5324
lfingers 7.12502
lthumb 9.41641 28.2372
rfemur -35.3661 12.6462 27.2228
rtibia 34.4541
rfoot -11.9662 -5.2527
rtoes -4.41313
lfemur -38.6388 -0.78431 -19.5128
ltibia 72.9784
lfoot 6.26919 -10.8593
ltoes -21.3037
896
root 22.6093 15.5801 -2.24643 -164.43 177.712 -183.689
lowerback -12.7548 0.923017 11.1579
upperback -4.96242 -0.183544 2.3947
thorax 1.84208 -0.176653 -3.77613
lowerneck -11.5821 -11.4834 -7.17055
upperneck 18.1796 -14.5573 0.541941
head 8.10099 -7.35908 -0.25213
rclavicle -7.44355e-015 1.27222e-014
rhumerus -30.7776 9.43066 -83.483
rradius 25.8604
rwrist -4.38268
rhand -14.3757 -13.2671
rfingers 7.12502
rthumb 11.7669 -42.9166
lclavicle -7.44355e-015 1.27222e-014
lhumerus -45.7419 -1.738 80.1627
lradius 23.6166
lwrist 38.8117
lhand -16.8969 -1.4541
lfingers 7.12502
lthumb 9.3348 28.3192
rfemur -34.9682 12.6062 27.2812
rtibia 34.7118
rfoot -12.4146 -5.16909
rtoes -4.43595
lfemur -39.7395 -0.623825 -19.5991
ltibia 73.4743
lfoot 5.7775 -10.5337
ltoes -21.5441
897
root 22.6105 15.5741 -2.15813 -164.564 177.914 -183.626
lowerback -12.457 0.937023 11.1849
upperback -4.91027 -0.131016 2.41169
thorax 1.74325 -0.153917 -3.76538
lowerneck -11.507 -11.4863 -7.20335
upperneck 18.0787 -14.5763 0.634423
head 8.06463 -7.36258 -0.212418
rclavicle 1.4557e-015 -2.94201e-014
rhumerus -30.394 9.39085 -83.4005
rradius 25.7624
rwrist -4.30566
rhand -15.0424 -13.4785
rfingers 7.12502
rthumb 11.1239 -43.1637
lclavicle 1.4557e-015 -2.94201e-014
lhumerus -45.7214 -1.51092 80.0706
lradius 23.887
lwrist 38.4249
lhand -16.958 -1.60041
lfingers 7.12502
lthumb 9.2759 28.1755
rfemur -34.5414 12.5601 27.3501
rtibia 34.9162
rfoot -12.8366 -5.11112
rtoes -4.49452
lfemur -40.7862 -0.515771 -19.6516
ltibia 73.8057
lfoot 5.24093 -10.2568
ltoes -21.9366
898
root 22.6117 15.57 -2.06882 -164.696 178.084 -183.582
lowerback -12.1732 0.944922 11.2451
upperback -4.86162 -0.0914891 2.42013
thorax 1.64556 -0.138072 -3.78412
lowerneck -11.4657 -11.4848 -7.22757
upperneck 18.0413 -14.5867 0.708487
head 8.05303 -7.36256 -0.183109
rclavicle -1.91563e-014 8.74653e-015
rhumerus -30.0007 9.28122 -83.3271
rradius 25.6289
rwrist -4.17743
rhand -15.6799 -13.7397
rfingers 7.12502
rthumb 10.509 -43.457
lclavicle -1.91563e-014 8.74653e-015
lhumerus -45.7252 -1.32056 79.9834
lradius 24.2406
lwrist 38.1649
lhand -16.9411 -2.01047
lfingers 7.12502
lthumb 9.29214 27.7648
rfemur -34.0848 12.5066 27.4364
rtibia 35.0741
rfoot -13.2383 -5.063
rtoes -4.57117
lfemur -41.7751 -0.451747 -19.6687
ltibia 73.9769
lfoot 4.64118 -10.0015
ltoes -22.4619
